<?xml version="1.0" standalone="no"?>
<!DOCTYPE svg PUBLIC "-//W3C//DTD SVG 20010904//EN"
 "http://www.w3.org/TR/2001/REC-SVG-20010904/DTD/svg10.dtd">
<svg version="1.0" xmlns="http://www.w3.org/2000/svg"
 width="700.000000pt" height="700.000000pt" viewBox="0 0 700.000000 700.000000"
 preserveAspectRatio="xMidYMid meet">
<metadata>
Created by potrace 1.11, written by Peter Selinger 2001-2013
</metadata>
<g transform="translate(0.000000,700.000000) scale(0.100000,-0.100000)"
fill="#000000" stroke="none">
<path d="M5705 6993 c-60 -15 -209 -70 -270 -100 -175 -88 -340 -225 -438
-366 -46 -67 -127 -223 -127 -245 0 -6 -21 -23 -47 -36 -74 -37 -169 -111
-247 -191 -86 -89 -84 -86 -143 -177 -109 -168 -176 -382 -229 -728 -3 -19
-10 -55 -16 -80 -5 -25 -12 -55 -14 -68 -42 -217 -161 -573 -229 -682 -12 -19
-39 -64 -60 -100 -98 -166 -276 -369 -445 -506 -69 -55 -220 -165 -262 -189
-230 -134 -325 -182 -493 -256 -167 -72 -369 -187 -427 -242 -7 -7 -33 -28
-58 -48 -132 -107 -279 -278 -372 -434 -59 -98 -137 -257 -144 -295 -2 -8 -7
-23 -13 -35 -26 -52 -83 -254 -97 -350 -5 -27 -9 -52 -9 -55 -1 -3 -5 -36 -10
-75 -4 -38 -9 -81 -11 -95 -5 -40 -5 -321 1 -362 6 -43 2 -43 -79 6 -282 171
-459 375 -570 654 -36 92 -79 250 -91 335 -3 27 -8 58 -10 70 -8 40 -19 223
-19 312 1 124 13 237 38 350 107 484 469 839 1011 991 101 29 145 52 194 104
122 128 115 334 -16 456 -51 48 -134 84 -198 88 -112 6 -379 -83 -620 -206
-44 -23 -82 -44 -85 -47 -3 -3 -21 -15 -40 -25 -141 -79 -376 -281 -492 -424
-207 -257 -365 -613 -404 -907 -3 -27 -8 -53 -10 -56 -10 -17 -19 -198 -19
-374 1 -179 4 -232 20 -355 3 -19 7 -55 10 -80 10 -72 52 -258 79 -346 153
-507 444 -927 851 -1230 250 -185 561 -318 825 -351 25 -3 50 -6 57 -7 6 -1
38 -22 70 -47 122 -95 254 -156 388 -178 37 -6 525 -10 1266 -10 1203 -1 1206
-1 1232 19 34 27 48 80 41 155 -19 212 -117 389 -271 491 -69 46 -194 90 -280
100 l-63 6 76 53 c159 109 273 247 328 400 10 28 21 53 25 57 3 4 25 -48 48
-115 59 -170 153 -438 163 -462 5 -11 41 -112 81 -225 39 -113 81 -224 92
-248 29 -62 112 -149 171 -179 99 -50 120 -52 577 -53 l426 0 32 29 c17 16 32
38 32 50 1 12 2 27 3 34 3 26 -14 127 -30 173 -37 113 -142 241 -257 317 -51
34 -187 102 -239 120 -17 6 -18 43 -18 578 l0 571 29 37 c149 189 287 489 335
726 71 350 18 754 -137 1054 -27 53 -71 138 -97 189 -116 223 -140 396 -68
487 33 42 128 84 223 98 350 53 608 309 684 679 6 29 14 64 17 78 3 14 8 77
11 141 5 111 5 119 -21 175 -15 33 -41 82 -59 109 -30 47 -225 314 -237 325
-4 3 -43 53 -89 112 -45 59 -94 116 -109 127 -82 58 -282 121 -459 144 -12 2
-25 6 -29 10 -4 4 -7 135 -8 292 l-1 285 -25 25 c-26 25 -84 38 -125 28z"/>
</g>
</svg>
